<?xml version="1.0" encoding="UTF-8" ?>
<!DOCTYPE svg PUBLIC "-//W3C//DTD SVG 1.1//EN" "http://www.w3.org/Graphics/SVG/1.1/DTD/svg11.dtd">
<svg width="468.75pt" height="120pt" viewBox="0 0 1969 505" version="1.1" xmlns="http://www.w3.org/2000/svg">
<g id="#ff424dff">
<path fill="#ff424d" opacity="1.00" d=" M 2.98 1.99 C 33.66 2.01 64.33 2.01 95.01 1.99 C 94.99 169.00 94.99 336.00 95.01 503.01 C 64.33 502.99 33.66 502.99 2.98 503.01 C 2.97 336.00 2.97 169.00 2.98 1.99 Z" />
<path fill="#ff424d" opacity="1.00" d=" M 326.36 2.31 C 373.03 -0.28 420.42 15.73 456.15 45.83 C 480.45 66.06 499.32 92.71 510.72 122.19 C 520.23 146.54 524.34 172.97 523.01 199.06 C 521.44 238.97 505.97 277.93 480.81 308.82 C 455.77 339.37 420.97 361.94 382.60 371.55 C 362.31 377.25 341.05 378.13 320.12 376.91 C 288.03 374.24 256.71 363.07 230.10 344.94 C 208.23 330.18 189.77 310.56 175.89 288.17 C 165.87 271.22 157.57 253.06 153.36 233.75 C 150.24 221.74 149.17 209.34 148.08 197.02 C 147.80 189.31 147.83 181.58 148.93 173.93 C 152.47 126.60 175.33 81.21 210.79 49.75 C 242.40 21.44 283.93 4.23 326.36 2.31 Z" />
</g>
<g id="#000000ff">
<path fill="#000000" opacity="1.00" d=" M 1658.41 162.59 C 1675.29 161.21 1692.71 163.49 1708.08 170.84 C 1723.33 177.87 1736.59 189.40 1744.96 204.03 C 1757.05 223.71 1760.57 247.91 1756.54 270.49 C 1753.96 284.80 1747.68 298.33 1738.94 309.91 C 1726.96 325.40 1709.15 335.91 1690.19 340.35 C 1672.89 344.15 1654.58 343.57 1637.64 338.35 C 1622.43 333.73 1608.72 324.57 1598.39 312.54 C 1575.62 286.07 1570.88 246.44 1584.61 214.67 C 1590.18 201.62 1598.99 189.95 1610.15 181.18 C 1623.78 170.09 1641.03 164.12 1658.41 162.59 M 1660.43 198.60 C 1651.09 199.76 1642.30 204.12 1635.20 210.21 C 1612.07 231.46 1611.71 271.95 1634.16 293.83 C 1648.26 307.42 1670.74 310.59 1688.39 302.46 C 1696.04 298.99 1702.33 293.08 1707.40 286.47 C 1717.82 271.71 1720.51 252.03 1715.25 234.83 C 1710.82 219.05 1698.52 205.32 1682.77 200.34 C 1675.59 197.95 1667.88 197.87 1660.43 198.60 Z" />
<path fill="#000000" opacity="1.00" d=" M 671.01 166.66 C 695.00 166.53 718.99 166.61 742.98 166.61 C 759.32 166.57 776.03 172.61 787.32 184.68 C 802.25 199.15 807.85 221.61 803.80 241.73 C 799.48 263.75 782.39 283.10 760.37 288.49 C 744.13 292.34 727.28 290.57 710.75 291.01 C 710.67 306.78 710.67 322.54 710.75 338.31 C 697.51 338.47 684.26 338.43 671.01 338.34 C 670.99 281.11 670.99 223.89 671.01 166.66 M 710.75 199.01 C 710.68 218.72 710.67 238.43 710.75 258.15 C 720.52 258.05 730.29 258.35 740.06 258.11 C 749.86 258.03 758.32 250.92 762.37 242.37 C 766.49 233.01 766.15 221.70 761.19 212.72 C 756.99 205.45 749.39 199.96 740.90 199.30 C 730.87 198.53 720.79 199.17 710.75 199.01 Z" />
<path fill="#000000" opacity="1.00" d=" M 901.32 166.71 C 913.51 166.50 925.70 166.58 937.89 166.67 C 958.54 223.89 979.07 281.16 999.84 338.34 C 985.37 338.34 970.89 338.65 956.43 338.17 C 954.43 331.59 952.86 324.85 950.27 318.48 C 947.63 317.51 944.76 317.67 942.01 317.61 C 924.38 317.84 906.74 317.58 889.11 317.77 C 887.01 324.60 884.62 331.33 882.73 338.22 C 868.55 338.58 854.35 338.37 840.17 338.35 C 860.68 281.18 881.02 223.95 901.32 166.71 M 919.63 215.83 C 912.85 239.33 905.69 262.72 898.82 286.20 C 912.61 286.36 926.39 286.34 940.18 286.21 C 933.43 262.72 926.74 239.21 919.63 215.83 Z" />
<path fill="#000000" opacity="1.00" d=" M 1027.98 166.66 C 1066.98 166.56 1105.99 166.56 1144.99 166.66 C 1145.01 178.11 1145.00 189.55 1145.00 201.00 C 1132.00 201.00 1119.00 201.00 1106.00 201.00 C 1105.99 246.78 1106.01 292.56 1105.99 338.34 C 1092.74 338.43 1079.49 338.47 1066.25 338.31 C 1066.33 292.54 1066.32 246.78 1066.25 201.01 C 1053.49 200.99 1040.73 201.01 1027.97 201.00 C 1027.92 189.55 1027.91 178.11 1027.98 166.66 Z" />
<path fill="#000000" opacity="1.00" d=" M 1206.45 166.71 C 1223.30 166.47 1240.15 166.66 1257.00 166.60 C 1266.33 166.73 1275.67 166.27 1285.00 166.90 C 1303.68 168.23 1321.45 178.81 1331.33 194.75 C 1341.24 210.90 1343.81 231.51 1337.48 249.45 C 1332.57 264.56 1321.12 277.20 1306.90 284.15 C 1318.10 302.33 1329.72 320.25 1341.12 338.30 C 1325.77 338.49 1310.41 338.42 1295.07 338.33 C 1285.05 322.54 1274.88 306.83 1264.90 291.02 C 1258.60 291.00 1252.30 291.00 1246.00 291.00 C 1245.99 306.78 1246.01 322.56 1245.99 338.34 C 1232.81 338.42 1219.63 338.49 1206.45 338.29 C 1206.79 311.87 1206.50 285.43 1206.60 259.00 C 1206.50 228.24 1206.79 197.47 1206.45 166.71 M 1246.00 198.99 C 1246.00 218.71 1245.99 238.43 1246.01 258.15 C 1255.35 258.07 1264.70 258.28 1274.05 258.16 C 1278.96 258.14 1283.94 256.91 1287.97 254.00 C 1296.46 248.37 1300.83 238.01 1300.88 228.05 C 1300.57 220.25 1297.59 212.48 1292.23 206.77 C 1287.30 201.60 1280.09 199.19 1273.08 199.03 C 1264.06 198.79 1255.03 199.08 1246.00 198.99 Z" />
<path fill="#000000" opacity="1.00" d=" M 1408.01 166.66 C 1442.95 166.56 1477.89 166.55 1512.83 166.67 C 1512.62 177.18 1512.65 187.69 1512.81 198.20 C 1491.16 198.38 1469.51 198.26 1447.86 198.26 C 1447.56 211.28 1447.71 224.31 1447.76 237.33 C 1469.43 237.26 1491.11 237.30 1512.78 237.30 C 1512.66 247.77 1512.66 258.23 1512.79 268.70 C 1491.11 268.75 1469.43 268.63 1447.76 268.76 C 1447.71 281.42 1447.56 294.08 1447.86 306.74 C 1469.51 306.75 1491.16 306.62 1512.81 306.80 C 1512.65 317.31 1512.62 327.82 1512.83 338.33 C 1477.89 338.45 1442.95 338.44 1408.01 338.34 C 1407.99 281.11 1407.99 223.89 1408.01 166.66 Z" />
<path fill="#000000" opacity="1.00" d=" M 1824.02 166.66 C 1836.03 166.55 1848.05 166.62 1860.07 166.53 C 1862.20 166.76 1865.19 166.26 1866.40 168.55 C 1869.89 173.90 1872.51 179.77 1875.76 185.28 C 1887.15 205.87 1898.50 226.49 1909.88 247.09 C 1915.66 257.20 1920.80 267.68 1927.02 277.54 C 1927.65 253.04 1927.12 228.51 1927.29 204.00 C 1927.23 191.56 1927.42 179.11 1927.17 166.67 C 1940.44 166.55 1953.71 166.56 1966.98 166.66 C 1966.98 223.89 1966.99 281.11 1966.98 338.34 C 1953.07 338.42 1939.16 338.49 1925.25 338.30 C 1915.76 320.72 1905.62 303.51 1896.03 285.98 C 1885.27 266.95 1874.95 247.66 1863.95 228.77 C 1863.39 254.84 1863.86 280.93 1863.71 307.00 C 1863.75 317.44 1863.58 327.89 1863.83 338.33 C 1850.56 338.45 1837.29 338.44 1824.02 338.34 C 1824.02 281.11 1824.02 223.89 1824.02 166.66 Z" />
</g>
</svg>
